<svg width="64" height="64" viewBox="0 0 64 64" fill="none" xmlns="http://www.w3.org/2000/svg">
<path fill-rule="evenodd" clip-rule="evenodd" d="M56 32C56 18.7452 45.2548 8 32 8C18.7452 8 8 18.7452 8 32C8 32.9644 8.05689 33.9156 8.16749 34.8503C8.41003 35.0038 8.6896 35.1452 9.00548 35.2752C10.0809 35.7177 11.3691 35.9242 12.3965 35.9823C12.1365 34.6953 12 33.3636 12 32C12 29.9096 12.3207 27.8941 12.9156 26H22.315C22.1094 27.9177 22 29.9282 22 32C22 34.0718 22.1094 36.0823 22.315 38H12.9156C12.9156 38.0001 12.9156 37.9999 12.9156 38C11.7543 37.9914 10.0783 37.8042 8.57682 37.2539C10.9726 47.9817 20.5499 56 32 56C45.2548 56 56 45.2548 56 32ZM32.2521 51.922C32.0954 51.9989 32.0212 52 32 52C31.9788 52 31.9046 51.9989 31.7479 51.922C31.5769 51.838 31.3056 51.6606 30.9571 51.3068C30.2376 50.5764 29.4055 49.3144 28.6212 47.4321C27.9783 45.8892 27.4205 44.0568 26.9866 42H37.0134C36.5795 44.0568 36.0217 45.8892 35.3788 47.4321C34.5945 49.3144 33.7624 50.5764 33.0429 51.3068C32.6944 51.6606 32.4231 51.838 32.2521 51.922ZM37.6602 38H26.3398C26.1204 36.112 26 34.1002 26 32C26 29.8998 26.1204 27.888 26.3398 26H37.6602C37.8796 27.888 38 29.8998 38 32C38 34.1002 37.8796 36.112 37.6602 38ZM28.6212 16.5679C27.9783 18.1108 27.4205 19.9432 26.9866 22H37.0134C36.5795 19.9432 36.0217 18.1108 35.3788 16.5679C34.5945 14.6856 33.7624 13.4236 33.0429 12.6932C32.6944 12.3394 32.4231 12.162 32.2521 12.078C32.0954 12.0011 32.0212 12 32 12C31.9788 12 31.9046 12.0011 31.7479 12.078C31.5769 12.162 31.3056 12.3394 30.9571 12.6932C30.2376 13.4236 29.4055 14.6856 28.6212 16.5679ZM42 32C42 29.9282 41.8906 27.9177 41.685 26H51.0844C51.6793 27.8941 52 29.9096 52 32C52 34.0904 51.6793 36.1059 51.0844 38H41.685C41.8906 36.0823 42 34.0718 42 32ZM41.0933 22H49.3244C46.8562 17.7332 42.857 14.463 38.078 12.9403C39.3669 15.3114 40.4084 18.4185 41.0933 22ZM14.6756 22H22.9067C23.5916 18.4185 24.6331 15.3114 25.922 12.9403C21.143 14.463 17.1438 17.7333 14.6756 22ZM41.0933 42C40.4084 45.5815 39.3669 48.6886 38.078 51.0597C42.857 49.5371 46.8562 46.2668 49.3244 42H41.0933ZM14.6756 42C17.1438 46.2668 21.143 49.5371 25.922 51.0597C24.6331 48.6886 23.5916 45.5815 22.9067 42H14.6756Z" fill="url(#paint0_linear)"/>
<path fill-rule="evenodd" clip-rule="evenodd" d="M56 32C56 18.7452 45.2548 8 32 8C18.7452 8 8 18.7452 8 32C8 32.9644 8.05689 33.9156 8.16749 34.8503C8.41003 35.0038 8.6896 35.1452 9.00548 35.2752C10.0809 35.7177 11.3691 35.9242 12.3965 35.9823C12.1365 34.6953 12 33.3636 12 32C12 29.9096 12.3207 27.8941 12.9156 26H22.315C22.1094 27.9177 22 29.9282 22 32C22 34.0718 22.1094 36.0823 22.315 38H12.9156C12.9156 38.0001 12.9156 37.9999 12.9156 38C11.7543 37.9914 10.0783 37.8042 8.57682 37.2539C10.9726 47.9817 20.5499 56 32 56C45.2548 56 56 45.2548 56 32ZM32.2521 51.922C32.0954 51.9989 32.0212 52 32 52C31.9788 52 31.9046 51.9989 31.7479 51.922C31.5769 51.838 31.3056 51.6606 30.9571 51.3068C30.2376 50.5764 29.4055 49.3144 28.6212 47.4321C27.9783 45.8892 27.4205 44.0568 26.9866 42H37.0134C36.5795 44.0568 36.0217 45.8892 35.3788 47.4321C34.5945 49.3144 33.7624 50.5764 33.0429 51.3068C32.6944 51.6606 32.4231 51.838 32.2521 51.922ZM37.6602 38H26.3398C26.1204 36.112 26 34.1002 26 32C26 29.8998 26.1204 27.888 26.3398 26H37.6602C37.8796 27.888 38 29.8998 38 32C38 34.1002 37.8796 36.112 37.6602 38ZM28.6212 16.5679C27.9783 18.1108 27.4205 19.9432 26.9866 22H37.0134C36.5795 19.9432 36.0217 18.1108 35.3788 16.5679C34.5945 14.6856 33.7624 13.4236 33.0429 12.6932C32.6944 12.3394 32.4231 12.162 32.2521 12.078C32.0954 12.0011 32.0212 12 32 12C31.9788 12 31.9046 12.0011 31.7479 12.078C31.5769 12.162 31.3056 12.3394 30.9571 12.6932C30.2376 13.4236 29.4055 14.6856 28.6212 16.5679ZM42 32C42 29.9282 41.8906 27.9177 41.685 26H51.0844C51.6793 27.8941 52 29.9096 52 32C52 34.0904 51.6793 36.1059 51.0844 38H41.685C41.8906 36.0823 42 34.0718 42 32ZM41.0933 22H49.3244C46.8562 17.7332 42.857 14.463 38.078 12.9403C39.3669 15.3114 40.4084 18.4185 41.0933 22ZM14.6756 22H22.9067C23.5916 18.4185 24.6331 15.3114 25.922 12.9403C21.143 14.463 17.1438 17.7333 14.6756 22ZM41.0933 42C40.4084 45.5815 39.3669 48.6886 38.078 51.0597C42.857 49.5371 46.8562 46.2668 49.3244 42H41.0933ZM14.6756 42C17.1438 46.2668 21.143 49.5371 25.922 51.0597C24.6331 48.6886 23.5916 45.5815 22.9067 42H14.6756Z" fill="url(#paint1_linear)"/>
<defs>
<linearGradient id="paint0_linear" x1="40.5" y1="20.5" x2="10" y2="32" gradientUnits="userSpaceOnUse">
<stop offset="0.680307" stop-color="#FF0025"/>
<stop offset="1" stop-color="#FDA22B"/>
</linearGradient>
<linearGradient id="paint1_linear" x1="38" y1="54" x2="32" y2="20.5" gradientUnits="userSpaceOnUse">
<stop stop-color="#B90024"/>
<stop offset="1" stop-color="#FF0025" stop-opacity="0"/>
</linearGradient>
</defs>
</svg>
