<svg width="64" height="64" viewBox="0 0 64 64" fill="none" xmlns="http://www.w3.org/2000/svg">
<path fill-rule="evenodd" clip-rule="evenodd" d="M51.4604 16.6935C47.4164 13.0171 42.1356 10.6666 37.3333 10.6666H10.6666C10.6666 13.6121 13.0545 16 16 16H37.3333C40.531 16 44.5835 17.6495 47.8729 20.6398C50.4561 22.9882 52.3795 25.9897 53.0624 29.3333H40V22.6666C40 21.1939 38.8061 20 37.3333 20C35.8606 20 34.6666 21.1939 34.6666 22.6666V32C34.6666 33.4727 35.8606 34.6666 37.3333 34.6666H53.3333V40C53.3333 41.4727 52.1394 42.6666 50.6666 42.6666H50.2114C49.1132 39.5594 46.1499 37.3333 42.6666 37.3333C39.1834 37.3333 36.2201 39.5594 35.1219 42.6666H28.8781C27.7799 39.5594 24.8166 37.3333 21.3333 37.3333C17.8364 37.3333 14.8636 39.5769 13.7757 42.7032C13.6318 42.6791 13.484 42.6666 13.3333 42.6666H10.6666C7.72113 42.6666 5.33331 45.0544 5.33331 48H13.3333C13.484 48 13.6318 47.9875 13.7757 47.9634C14.8636 51.0897 17.8364 53.3333 21.3333 53.3333C24.8166 53.3333 27.7799 51.1071 28.8781 48H35.1219C36.2201 51.1071 39.1834 53.3333 42.6666 53.3333C46.1499 53.3333 49.1132 51.1071 50.2114 48H50.6666C55.0849 48 58.6666 44.4182 58.6666 40L58.6666 32C58.6666 25.7418 55.5402 20.4023 51.4604 16.6935ZM45.3333 45.3333C45.3333 43.8605 44.1394 42.6666 42.6666 42.6666C41.1939 42.6666 40 43.8605 40 45.3333C40 46.806 41.1939 48 42.6666 48C44.1394 48 45.3333 46.806 45.3333 45.3333ZM21.3333 48C22.8061 48 24 46.806 24 45.3333C24 43.8605 22.8061 42.6666 21.3333 42.6666C19.8606 42.6666 18.6666 43.8605 18.6666 45.3333C18.6666 46.806 19.8606 48 21.3333 48Z" fill="#B90024"/>
<path fill-rule="evenodd" clip-rule="evenodd" d="M51.4604 16.6935C47.4164 13.0171 42.1356 10.6666 37.3333 10.6666H10.6666C10.6666 13.6121 13.0545 16 16 16H37.3333C40.531 16 44.5835 17.6495 47.8729 20.6398C50.4561 22.9882 52.3795 25.9897 53.0624 29.3333H40V22.6666C40 21.1939 38.8061 20 37.3333 20C35.8606 20 34.6666 21.1939 34.6666 22.6666V32C34.6666 33.4727 35.8606 34.6666 37.3333 34.6666H53.3333V40C53.3333 41.4727 52.1394 42.6666 50.6666 42.6666H50.2114C49.1132 39.5594 46.1499 37.3333 42.6666 37.3333C39.1834 37.3333 36.2201 39.5594 35.1219 42.6666H28.8781C27.7799 39.5594 24.8166 37.3333 21.3333 37.3333C17.8364 37.3333 14.8636 39.5769 13.7757 42.7032C13.6318 42.6791 13.484 42.6666 13.3333 42.6666H10.6666C7.72113 42.6666 5.33331 45.0544 5.33331 48H13.3333C13.484 48 13.6318 47.9875 13.7757 47.9634C14.8636 51.0897 17.8364 53.3333 21.3333 53.3333C24.8166 53.3333 27.7799 51.1071 28.8781 48H35.1219C36.2201 51.1071 39.1834 53.3333 42.6666 53.3333C46.1499 53.3333 49.1132 51.1071 50.2114 48H50.6666C55.0849 48 58.6666 44.4182 58.6666 40L58.6666 32C58.6666 25.7418 55.5402 20.4023 51.4604 16.6935ZM45.3333 45.3333C45.3333 43.8605 44.1394 42.6666 42.6666 42.6666C41.1939 42.6666 40 43.8605 40 45.3333C40 46.806 41.1939 48 42.6666 48C44.1394 48 45.3333 46.806 45.3333 45.3333ZM21.3333 48C22.8061 48 24 46.806 24 45.3333C24 43.8605 22.8061 42.6666 21.3333 42.6666C19.8606 42.6666 18.6666 43.8605 18.6666 45.3333C18.6666 46.806 19.8606 48 21.3333 48Z" fill="url(#paint0_linear)"/>
<path d="M5.33331 24C5.33331 22.5272 6.52722 21.3333 7.99998 21.3333H18.6666C20.1394 21.3333 21.3333 22.5272 21.3333 24C21.3333 25.4727 20.1394 26.6666 18.6666 26.6666H7.99998C6.52722 26.6666 5.33331 25.4727 5.33331 24Z" fill="#B90024"/>
<path d="M5.33331 24C5.33331 22.5272 6.52722 21.3333 7.99998 21.3333H18.6666C20.1394 21.3333 21.3333 22.5272 21.3333 24C21.3333 25.4727 20.1394 26.6666 18.6666 26.6666H7.99998C6.52722 26.6666 5.33331 25.4727 5.33331 24Z" fill="url(#paint1_linear)"/>
<path d="M13.3333 29.3333C11.8606 29.3333 10.6666 30.5272 10.6666 32C10.6666 33.4727 11.8606 34.6666 13.3333 34.6666H21.3333C22.8061 34.6666 24 33.4727 24 32C24 30.5272 22.8061 29.3333 21.3333 29.3333H13.3333Z" fill="#B90024"/>
<path d="M13.3333 29.3333C11.8606 29.3333 10.6666 30.5272 10.6666 32C10.6666 33.4727 11.8606 34.6666 13.3333 34.6666H21.3333C22.8061 34.6666 24 33.4727 24 32C24 30.5272 22.8061 29.3333 21.3333 29.3333H13.3333Z" fill="url(#paint2_linear)"/>
<defs>
<linearGradient id="paint0_linear" x1="59" y1="11" x2="5.00001" y2="44.5" gradientUnits="userSpaceOnUse">
<stop offset="0.680307" stop-color="#ED0226"/>
<stop offset="1" stop-color="#FDA22B"/>
</linearGradient>
<linearGradient id="paint1_linear" x1="59" y1="11" x2="5.00001" y2="44.5" gradientUnits="userSpaceOnUse">
<stop offset="0.680307" stop-color="#ED0226"/>
<stop offset="1" stop-color="#FDA22B"/>
</linearGradient>
<linearGradient id="paint2_linear" x1="59" y1="11" x2="5.00001" y2="44.5" gradientUnits="userSpaceOnUse">
<stop offset="0.680307" stop-color="#ED0226"/>
<stop offset="1" stop-color="#FDA22B"/>
</linearGradient>
</defs>
</svg>
