<svg width="64" height="64" viewBox="0 0 64 64" fill="none" xmlns="http://www.w3.org/2000/svg">
<path fill-rule="evenodd" clip-rule="evenodd" d="M19.8861 32V34H26.0622C28.6061 34 30.7614 35.6794 31.4997 38H37.22C39.8523 38 42.1156 39.5948 43.1137 41.8795L46.9715 38.2011C48.9985 36.2683 52.1556 36.2301 54.228 38.1131C56.5076 40.1844 56.6008 43.762 54.4321 45.9514L45.0658 55.4075C44.6902 55.7867 44.1786 56 43.6449 56H25.8426C25.3089 56 24.7973 55.7867 24.4217 55.4075L19.8861 50.8284V52C19.8861 54.2091 18.1123 56 15.9241 56H8V50.2787C8.06503 50.3266 8.13045 50.3737 8.1961 50.42C8.81223 50.8542 9.48262 51.2374 10.112 51.5159C10.712 51.7814 11.381 52 11.962 52H15.9241V32H11.962V50C11.8 50 11.4371 49.9186 10.9072 49.6841C10.4066 49.4626 9.84901 49.1458 9.33007 48.78C8.80749 48.4117 8.35743 48.0172 8.04964 47.652C8.03233 47.6315 8.0158 47.6114 8 47.5918V28H15.9241C18.1123 28 19.8861 29.7909 19.8861 32ZM19.8861 45.1716V38H26.0622C27.0276 38 27.8102 38.7901 27.8102 39.7647C27.8102 40.9992 28.8015 42 30.0243 42H37.22C38.418 42 39.4174 42.8589 39.6468 44H31.7722C30.6782 44 29.7912 44.8954 29.7912 46C29.7912 47.1046 30.6782 48 31.7722 48H42.4649L49.6919 41.1091C50.2187 40.6069 51.039 40.597 51.5775 41.0863C52.1698 41.6245 52.1941 42.5541 51.6305 43.123L42.8378 52H26.6497L19.8861 45.1716Z" fill="url(#paint0_linear)"/>
<path d="M19.8861 50.8285V52C19.8861 54.2092 18.1123 56 15.9241 56H8V50.2787C8.06503 50.3266 8.13045 50.3737 8.1961 50.42C8.81223 50.8542 9.48262 51.2374 10.112 51.5159C10.712 51.7814 11.381 52 11.962 52H15.9241L19.8861 50.8285Z" fill="url(#paint1_linear)"/>
<path fill-rule="evenodd" clip-rule="evenodd" d="M38.7058 12C33.2354 12 28.8007 16.4772 28.8007 22C28.8007 27.5228 33.2354 32 38.7058 32C44.1763 32 48.6109 27.5228 48.6109 22C48.6109 16.4772 44.1763 12 38.7058 12ZM24.8387 22C24.8387 14.268 31.0472 8 38.7058 8C46.3644 8 52.573 14.268 52.573 22C52.573 29.732 46.3644 36 38.7058 36C31.0472 36 24.8387 29.732 24.8387 22Z" fill="#FF0025"/>
<path fill-rule="evenodd" clip-rule="evenodd" d="M38.7061 15C39.2532 15 39.6966 15.4477 39.6966 16V17H41.6773C42.2244 17 42.6678 17.4477 42.6678 18C42.6678 18.5523 42.2244 19 41.6773 19H38.7061H37.22C36.7633 19 36.358 19.1484 36.0878 19.3667C35.8233 19.5803 35.7343 19.816 35.7343 20C35.7343 20.184 35.8233 20.4197 36.0878 20.6333C36.358 20.8516 36.7633 21 37.22 21H40.1915C41.0483 21 41.9028 21.273 42.5613 21.8049C43.2256 22.3414 43.6583 23.1232 43.6583 24C43.6583 24.8768 43.2256 25.6586 42.5613 26.1951C41.9028 26.727 41.0483 27 40.1915 27H39.6966V28C39.6966 28.5523 39.2532 29 38.7061 29C38.1591 29 37.7156 28.5523 37.7156 28V27H35.7343C35.1872 27 34.7437 26.5523 34.7437 26C34.7437 25.4477 35.1872 25 35.7343 25H38.7061H40.1915C40.6483 25 41.0535 24.8516 41.3238 24.6333C41.5883 24.4197 41.6773 24.184 41.6773 24C41.6773 23.816 41.5883 23.5803 41.3238 23.3667C41.0535 23.1484 40.6483 23 40.1915 23H37.22C36.3633 23 35.5088 22.727 34.8503 22.1951C34.186 21.6586 33.7532 20.8768 33.7532 20C33.7532 19.1232 34.186 18.3414 34.8503 17.8049C35.5088 17.273 36.3633 17 37.22 17H37.7156V16C37.7156 15.4477 38.1591 15 38.7061 15Z" fill="#FF0025"/>
<defs>
<linearGradient id="paint0_linear" x1="19.3909" y1="36" x2="7.91205" y2="45.3925" gradientUnits="userSpaceOnUse">
<stop offset="0.798538" stop-color="#FF0025"/>
<stop offset="1" stop-color="#FDA22B"/>
</linearGradient>
<linearGradient id="paint1_linear" x1="12.9525" y1="58" x2="16.4725" y2="51.0269" gradientUnits="userSpaceOnUse">
<stop offset="0.0534744" stop-color="#B90024"/>
<stop offset="1" stop-color="#FF0025"/>
</linearGradient>
</defs>
</svg>
