<?xml version="1.0" encoding="utf-8"?>
<!-- Generator: Adobe Illustrator 24.1.0, SVG Export Plug-In . SVG Version: 6.00 Build 0)  -->
<svg version="1.1" id="Layer_1" xmlns="http://www.w3.org/2000/svg" xmlns:xlink="http://www.w3.org/1999/xlink" x="0px" y="0px"
	 viewBox="0 0 68.8 68.8" style="enable-background:new 0 0 68.8 68.8;" xml:space="preserve">
<style type="text/css">
	.st0{fill:#B90024;}
	.st1{fill:url(#SVGID_1_);}
	.st2{fill:#FFFFFF;}
	.st3{fill-rule:evenodd;clip-rule:evenodd;fill:#FFFFFF;}
</style>
<path class="st0" d="M34.4,64.4c16.6,0,30-13.4,30-30s-13.4-30-30-30s-30,13.4-30,30S17.8,64.4,34.4,64.4z"/>
<g>
	
		<linearGradient id="SVGID_1_" gradientUnits="userSpaceOnUse" x1="3.4381" y1="26.8549" x2="51.3426" y2="38.5046" gradientTransform="matrix(1 0 0 -1 0 68.7588)">
		<stop  offset="0.6803" style="stop-color:#ED0226"/>
		<stop  offset="1" style="stop-color:#FDA22B"/>
	</linearGradient>
	<circle class="st1" cx="34.4" cy="34.4" r="31.5"/>
	<path class="st2" d="M34.4,4.4c16.6,0,30,13.4,30,30s-13.4,30-30,30c-16.6,0-30-13.4-30-30S17.8,4.4,34.4,4.4 M34.4,1.4
		c-18.2,0-33,14.8-33,33s14.8,33,33,33s33-14.8,33-33S52.6,1.4,34.4,1.4L34.4,1.4z"/>
</g>
<path class="st3" d="M51,21c0-1.8-1.5-3.3-3.3-3.3H21c-1.8,0-3.3,1.5-3.3,3.3v13.7c0.1,0.3,0.2,0.6,0.3,0.8c0.2,0.4,0.6,0.6,1.1,0.9
	c0.6,0.2,1.3,0.4,1.9,0.4V21h26.7v18.3h-5c-0.9,0-1.7,0.7-1.7,1.7v4.8l-7.3-6.1c-0.3-0.2-0.7-0.4-1.1-0.4H26l-3.4,0.1
	c-1,0-2.9,0-4.5-0.7c-0.2-0.1-0.3-0.1-0.4-0.2v0.8c0,1.8,1.5,3.3,3.3,3.3h11.1l9.5,7.9c0.5,0.4,1.2,0.5,1.8,0.2c0.6-0.3,1-0.9,1-1.5
	v-6.7h3.3c1.8,0,3.3-1.5,3.3-3.3V21z M41.9,31.9c-1.2,0-2.1-0.9-2.1-2.1s0.9-2.1,2.1-2.1s2.1,0.9,2.1,2.1S43,31.9,41.9,31.9z
	 M34.4,31.9c-1.2,0-2.1-0.9-2.1-2.1s0.9-2.1,2.1-2.1c1.2,0,2.1,0.9,2.1,2.1S35.5,31.9,34.4,31.9z M24.8,29.8c0,1.2,0.9,2.1,2.1,2.1
	c1.2,0,2.1-0.9,2.1-2.1s-0.9-2.1-2.1-2.1C25.7,27.7,24.8,28.6,24.8,29.8z"/>
</svg>
