<?xml version="1.0" encoding="utf-8"?>
<!-- Generator: Adobe Illustrator 23.0.6, SVG Export Plug-In . SVG Version: 6.00 Build 0)  -->
<svg version="1.1" id="Layer_1" xmlns="http://www.w3.org/2000/svg" xmlns:xlink="http://www.w3.org/1999/xlink" x="0px" y="0px"
	 viewBox="0 0 2500 741" style="enable-background:new 0 0 2500 741;" xml:space="preserve">
<style type="text/css">
	.st0{fill:#8F8F8F;}
	.st1{fill:#FFFFFF;stroke:#FFFFFF;stroke-width:0.2;stroke-miterlimit:10;}
	.st2{fill:#FFFFFF;}
	.st3{fill:url(#SVGID_1_);}
	.st4{fill:url(#SVGID_2_);}
	.st5{fill:url(#SVGID_3_);}
	.st6{fill:url(#SVGID_4_);}
	.st7{opacity:0.2;enable-background:new    ;}
	.st8{opacity:0.12;enable-background:new    ;}
	.st9{opacity:0.25;fill:#FFFFFF;enable-background:new    ;}
	.st10{display:none;}
	.st11{display:inline;}
	.st12{display:inline;fill:#FFFFFF;}
</style>
<g>
	<g>
		<path d="M130.1,731C63.9,731,10,677.1,10,610.9V130.1C10,63.9,63.9,10,130.1,10h2239.9c66.2,0,120.1,53.9,120.1,120.1v480.9
			c0,66.2-53.9,120.1-120.1,120.1H130.1z"/>
		<path class="st0" d="M2369.9,20c29.4,0,57,11.4,77.8,32.2c20.8,20.8,32.2,48.4,32.2,77.8v480.9c0,29.4-11.4,57-32.2,77.8
			c-20.8,20.8-48.4,32.2-77.8,32.2H130.1c-29.4,0-57-11.4-77.8-32.2S20,640.3,20,610.9V130.1c0-29.4,11.4-57,32.2-77.8
			S100.7,20,130.1,20H2369.9 M2369.9,0H130.1C58.2,0,0,58.2,0,130.1v480.9C0,682.8,58.2,741,130.1,741h2239.9
			c71.8,0,130.1-58.2,130.1-130.1V130.1C2500,58.2,2441.8,0,2369.9,0L2369.9,0z"/>
	</g>
	<path class="st1" d="M877.8,189c0,14.8-3.7,27.8-13,37c-11.1,11.1-24.1,16.7-40.7,16.7c-16.7,0-29.6-5.6-40.7-16.7
		c-11.1-11.1-16.7-24.1-16.7-40.7s5.6-29.6,16.7-40.7c11.1-11.1,24.1-16.7,40.7-16.7c7.4,0,14.8,1.9,22.2,5.6
		c7.4,3.7,13,7.4,16.7,13l-9.3,9.3c-7.4-9.3-16.7-13-29.6-13c-11.1,0-22.2,3.7-29.6,13c-9.3,7.4-13,18.5-13,31.5
		c0,13,3.7,24.1,13,31.5c9.3,7.4,18.5,13,29.6,13c13,0,22.2-3.7,31.5-13c5.6-5.6,9.3-13,9.3-22.2h-40.7v-14.8h53.7L877.8,189
		L877.8,189z M963,142.7h-50v35.2h46.3v13H913v35.2h50v14.8h-64.8V129.8H963V142.7z M1024.1,240.9h-14.8v-98.1h-31.5v-13h77.8v13
		h-31.5V240.9z M1109.3,240.9V129.8h14.8v111.1H1109.3z M1187,240.9h-14.8v-98.1h-31.5v-13h75.9v13h-31.5v98.1H1187z M1363,226.1
		c-11.1,11.1-24.1,16.7-40.7,16.7c-16.7,0-29.6-5.6-40.7-16.7c-11.1-11.1-16.7-24.1-16.7-40.7s5.6-29.6,16.7-40.7
		s24.1-16.7,40.7-16.7s29.6,5.6,40.7,16.7c11.1,11.1,16.7,24.1,16.7,40.7S1374.1,214.9,1363,226.1z M1292.6,216.8
		c7.4,7.4,18.5,13,29.6,13s22.2-3.7,29.6-13c7.4-7.4,13-18.5,13-31.5c0-13-3.7-24.1-13-31.5c-7.4-7.4-18.5-13-29.6-13
		s-22.2,3.7-29.6,13c-7.4,7.4-13,18.5-13,31.5C1279.6,198.3,1283.3,209.4,1292.6,216.8z M1400,240.9V129.8h16.7l53.7,87v-87h14.8
		v111.1h-14.8l-57.4-90.7v90.7H1400L1400,240.9z"/>
	<path class="st2" d="M1261.1,403.8c-44.4,0-79.6,33.3-79.6,79.6c0,44.4,35.2,79.6,79.6,79.6s79.6-33.3,79.6-79.6
		C1340.7,435.3,1305.6,403.8,1261.1,403.8z M1261.1,529.8c-24.1,0-44.4-20.4-44.4-48.1s20.4-48.1,44.4-48.1s44.4,18.5,44.4,48.1
		C1305.6,509.4,1285.2,529.8,1261.1,529.8z M1088.9,403.8c-44.4,0-79.6,33.3-79.6,79.6c0,44.4,35.2,79.6,79.6,79.6
		c44.4,0,79.6-33.3,79.6-79.6C1168.5,435.3,1133.3,403.8,1088.9,403.8z M1088.9,529.8c-24.1,0-44.4-20.4-44.4-48.1
		s20.4-48.1,44.4-48.1c24.1,0,44.4,18.5,44.4,48.1C1133.3,509.4,1113,529.8,1088.9,529.8z M883.3,427.9v33.3H963
		c-1.9,18.5-9.3,33.3-18.5,42.6c-11.1,11.1-29.6,24.1-61.1,24.1c-50,0-87-38.9-87-88.9s38.9-88.9,87-88.9
		c25.9,0,46.3,11.1,61.1,24.1l24.1-24.1c-20.4-18.5-46.3-33.3-83.3-33.3c-66.7,0-124.1,55.6-124.1,122.2s57.4,122.2,124.1,122.2
		c37,0,63-11.1,85.2-35.2c22.2-22.2,29.6-53.7,29.6-77.8c0-7.4,0-14.8-1.9-20.4L883.3,427.9L883.3,427.9z M1724.1,453.8
		c-7.4-18.5-25.9-50-66.7-50c-40.7,0-74.1,31.5-74.1,79.6c0,44.4,33.3,79.6,77.8,79.6c35.2,0,57.4-22.2,64.8-35.2l-25.9-18.5
		c-9.3,13-20.4,22.2-38.9,22.2c-18.5,0-29.6-7.4-38.9-24.1l105.6-44.4L1724.1,453.8L1724.1,453.8z M1616.7,479.8
		c0-29.6,24.1-46.3,40.7-46.3c13,0,25.9,7.4,29.6,16.7L1616.7,479.8L1616.7,479.8z M1529.6,555.7h35.2V324.2h-35.2V555.7z
		 M1474.1,420.5c-9.3-9.3-24.1-18.5-42.6-18.5c-38.9,0-75.9,35.2-75.9,79.6s35.2,77.8,75.9,77.8c18.5,0,33.3-9.3,40.7-18.5h1.9V552
		c0,29.6-16.7,46.3-42.6,46.3c-20.4,0-35.2-14.8-38.9-27.8l-29.6,13c9.3,20.4,31.5,46.3,70.4,46.3c40.7,0,74.1-24.1,74.1-81.5V407.5
		h-33.3L1474.1,420.5L1474.1,420.5z M1433.3,529.8c-24.1,0-44.4-20.4-44.4-48.1s20.4-48.1,44.4-48.1s42.6,20.4,42.6,48.1
		S1457.4,529.8,1433.3,529.8z M1885.2,324.2h-83.3v231.5h35.2v-87h48.1c38.9,0,75.9-27.8,75.9-72.2S1924.1,324.2,1885.2,324.2z
		 M1887,435.3h-50v-79.6h50c25.9,0,40.7,22.2,40.7,38.9C1925.9,414.9,1911.1,435.3,1887,435.3L1887,435.3z M2100,402
		c-25.9,0-51.9,11.1-61.1,35.2l31.5,13c7.4-13,18.5-16.7,31.5-16.7c18.5,0,35.2,11.1,37,29.6v1.9c-5.6-3.7-20.4-9.3-35.2-9.3
		c-33.3,0-66.7,18.5-66.7,51.9c0,31.5,27.8,51.9,57.4,51.9c24.1,0,35.2-11.1,44.4-22.2h1.9v18.5h33.3v-88.9
		C2170.4,426.1,2138.9,402,2100,402L2100,402z M2096.3,529.8c-11.1,0-27.8-5.6-27.8-20.4c0-18.5,20.4-24.1,37-24.1
		c14.8,0,22.2,3.7,31.5,7.4C2133.3,514.9,2114.8,529.8,2096.3,529.8z M2290.7,407.5l-38.9,100h-1.9l-40.7-100h-37l61.1,140.7
		l-35.2,77.8h35.2l94.4-218.5H2290.7L2290.7,407.5z M1979.6,555.7h35.2V324.2h-35.2V555.7z"/>
	<g>
		
			<linearGradient id="SVGID_1_" gradientUnits="userSpaceOnUse" x1="1128.6154" y1="342.9673" x2="1111.8323" y2="359.7493" gradientTransform="matrix(18.5185 0 0 18.5185 -20496.666 -6189.9072)">
			<stop  offset="0" style="stop-color:#00A0FF"/>
			<stop  offset="7.000001e-03" style="stop-color:#00A1FF"/>
			<stop  offset="0.26" style="stop-color:#00BEFF"/>
			<stop  offset="0.512" style="stop-color:#00D2FF"/>
			<stop  offset="0.76" style="stop-color:#00DFFF"/>
			<stop  offset="1" style="stop-color:#00E3FF"/>
		</linearGradient>
		<path class="st3" d="M192.6,139c-5.6,5.6-7.4,14.8-7.4,25.9v409.3c0,11.1,3.7,20.4,9.3,25.9l1.9,1.9l229.6-229.6v-3.7L192.6,139z"
			/>
		
			<linearGradient id="SVGID_2_" gradientUnits="userSpaceOnUse" x1="1140.6541" y1="354.312" x2="1116.457" y2="354.312" gradientTransform="matrix(18.5185 0 0 18.5185 -20496.666 -6189.9072)">
			<stop  offset="0" style="stop-color:#FFE000"/>
			<stop  offset="0.409" style="stop-color:#FFBD00"/>
			<stop  offset="0.775" style="stop-color:#FFA500"/>
			<stop  offset="1" style="stop-color:#FF9C00"/>
		</linearGradient>
		<path class="st4" d="M500,450.1l-75.9-75.9v-5.6l75.9-75.9l1.9,1.9l90.7,51.9c25.9,14.8,25.9,38.9,0,53.7L500,450.1z"/>
		
			<linearGradient id="SVGID_3_" gradientUnits="userSpaceOnUse" x1="1131.6355" y1="356.5465" x2="1108.8774" y2="379.3045" gradientTransform="matrix(18.5185 0 0 18.5185 -20496.666 -6189.9072)">
			<stop  offset="0" style="stop-color:#FF3A44"/>
			<stop  offset="1" style="stop-color:#C31162"/>
		</linearGradient>
		<path class="st5" d="M501.9,448.3l-77.8-77.8L192.6,602c9.3,9.3,22.2,9.3,38.9,1.9L501.9,448.3"/>
		
			<linearGradient id="SVGID_4_" gradientUnits="userSpaceOnUse" x1="1114.0815" y1="334.4735" x2="1124.2445" y2="344.6365" gradientTransform="matrix(18.5185 0 0 18.5185 -20496.666 -6189.9072)">
			<stop  offset="0" style="stop-color:#32A071"/>
			<stop  offset="6.900000e-02" style="stop-color:#2DA771"/>
			<stop  offset="0.476" style="stop-color:#15CF74"/>
			<stop  offset="0.801" style="stop-color:#06E775"/>
			<stop  offset="1" style="stop-color:#00F076"/>
		</linearGradient>
		<path class="st6" d="M501.9,292.7L231.5,139c-16.7-9.3-29.6-7.4-38.9,1.9l231.5,229.6L501.9,292.7L501.9,292.7z"/>
		<path class="st7" d="M500,446.4L231.5,598.3c-14.8,9.3-27.8,7.4-37,0l-1.9,1.9l1.9,1.9c9.3,7.4,22.2,9.3,37,0L500,446.4z"/>
		<path class="st8" d="M192.6,598.3c-5.6-5.6-7.4-14.8-7.4-25.9v1.9c0,11.1,3.7,20.4,9.3,25.9v-1.9L192.6,598.3L192.6,598.3z
			 M592.6,394.6L500,446.4l1.9,1.9l90.7-51.9c13-7.4,18.5-16.7,18.5-25.9C611.1,379.8,603.7,387.2,592.6,394.6z"/>
		<path class="st9" d="M231.5,140.9l361.1,205.6c11.1,7.4,18.5,14.8,18.5,24.1c0-9.3-5.6-18.5-18.5-25.9L231.5,139
			c-25.9-14.8-46.3-3.7-46.3,25.9v1.9C185.2,139,205.6,126.1,231.5,140.9z"/>
	</g>
</g>
<g class="st10">
	<g class="st11">
		<path d="M130.1,731C63.9,731,10,677.1,10,610.9V130.1C10,63.9,63.9,10,130.1,10h2239.9c66.2,0,120.1,53.9,120.1,120.1v480.9
			c0,66.2-53.9,120.1-120.1,120.1H130.1z"/>
		<path class="st0" d="M2369.9,20c29.4,0,57,11.4,77.8,32.2c20.8,20.8,32.2,48.4,32.2,77.8v480.9c0,29.4-11.4,57-32.2,77.8
			c-20.8,20.8-48.4,32.2-77.8,32.2H130.1c-29.4,0-57-11.4-77.8-32.2S20,640.3,20,610.9V130.1c0-29.4,11.4-57,32.2-77.8
			S100.7,20,130.1,20H2369.9 M2369.9,0H130.1C58.2,0,0,58.2,0,130.1v480.9C0,682.8,58.2,741,130.1,741h2239.9
			c71.8,0,130.1-58.2,130.1-130.1V130.1C2500,58.2,2441.8,0,2369.9,0L2369.9,0z"/>
	</g>
	<path class="st12" d="M514.6,351.6c-0.5-59.7,48.9-88.8,51.2-90.1c-28-40.8-71.4-46.4-86.7-46.8c-36.5-3.8-71.8,21.8-90.4,21.8
		c-18.9,0-47.5-21.4-78.4-20.8c-39.7,0.6-76.8,23.6-97.1,59.2c-42,72.7-10.7,179.5,29.6,238.3c20.1,28.8,43.6,60.9,74.4,59.8
		c30.1-1.2,41.4-19.2,77.7-19.2c36,0,46.6,19.2,78,18.5c32.3-0.5,52.7-28.9,72.1-57.9c23.3-33,32.6-65.5,33-67.1
		C577.2,446.8,515.2,423.1,514.6,351.6L514.6,351.6z M455.3,176c16.2-20.3,27.3-47.8,24.2-75.8c-23.4,1-52.8,16.2-69.6,36
		c-14.9,17.5-28.3,46.1-24.8,73C411.3,211.1,438.4,195.9,455.3,176L455.3,176z"/>
	<g class="st11">
		<path class="st2" d="M950.8,568.7h-42.1l-23.1-72.4h-80.1l-22,72.4h-41L822,322.1h49L950.8,568.7L950.8,568.7z M878.7,465.9
			l-20.9-64.4c-2.2-6.6-6.4-22.1-12.4-46.5h-0.7c-2.4,10.5-6.4,26-11.7,46.5l-20.5,64.4H878.7z M1154.6,477.6
			c0,30.2-8.2,54.1-24.6,71.7c-14.7,15.6-33,23.4-54.8,23.4c-23.6,0-40.5-8.4-50.8-25.2v93.3h-39.5V449.4c0-19-0.5-38.5-1.5-58.4
			h34.8l2.2,28.2h0.7c13.2-21.2,33.2-31.9,60-31.9c21,0,38.5,8.3,52.5,24.9C1147.6,428.7,1154.6,450.6,1154.6,477.6L1154.6,477.6z
			 M1114.4,479.1c0-17.3-3.9-31.6-11.7-42.8c-8.5-11.7-20-17.5-34.4-17.5c-9.7,0-18.6,3.3-26.5,9.7c-7.9,6.5-13.1,15-15.5,25.4
			c-1.1,3.9-1.7,8-1.8,12v29.7c0,12.9,4,23.8,11.9,32.8c7.9,8.9,18.2,13.4,30.9,13.4c14.9,0,26.5-5.8,34.8-17.2
			C1110.2,513,1114.4,497.9,1114.4,479.1z M1359.2,477.6c0,30.2-8.2,54.1-24.6,71.7c-14.7,15.6-33,23.4-54.8,23.4
			c-23.6,0-40.5-8.4-50.8-25.2v93.3h-39.5V449.4c0-19-0.5-38.5-1.5-58.4h34.8l2.2,28.2h0.7c13.2-21.2,33.2-31.9,60-31.9
			c21,0,38.5,8.3,52.5,24.9C1352.1,428.7,1359.2,450.6,1359.2,477.6L1359.2,477.6z M1318.9,479.1c0-17.3-3.9-31.6-11.7-42.8
			c-8.5-11.7-20-17.5-34.4-17.5c-9.7,0-18.6,3.3-26.6,9.7c-7.9,6.5-13.1,15-15.5,25.4c-1.2,4.9-1.9,8.9-1.9,12v29.7
			c0,12.9,4,23.8,11.9,32.8c7.9,8.9,18.2,13.4,31,13.4c14.9,0,26.5-5.8,34.8-17.2C1314.8,513,1318.9,497.9,1318.9,479.1z
			 M1587.9,499.6c0,21-7.3,38.1-21.9,51.2c-16,14.4-38.5,21.6-67.2,21.6c-26.5,0-47.8-5.1-63.9-15.4l9.1-32.9
			c17.3,10.3,36.4,15.4,57.1,15.4c14.9,0,26.5-3.4,34.8-10.1c8.3-6.7,12.5-15.7,12.5-26.9c0-10-3.5-18.4-10.3-25.3
			c-6.8-6.8-18.1-13.2-34-19c-43.2-16.1-64.8-39.7-64.8-70.6c0-20.2,7.6-36.8,22.9-49.7c15.2-12.9,35.4-19.4,60.6-19.4
			c22.4,0,41.1,3.9,56,11.7l-9.9,32.2c-14-7.6-29.7-11.3-47.4-11.3c-13.9,0-24.9,3.4-32.7,10.2c-6.6,6.1-9.9,13.5-9.9,22.3
			c0,9.7,3.8,17.8,11.4,24.1c6.6,5.8,18.5,12.2,35.8,19c21.2,8.6,36.8,18.5,46.8,30C1582.9,468.2,1587.9,482.5,1587.9,499.6
			L1587.9,499.6z M1718.9,420.6h-43.6v86.3c0,22,7.7,32.9,23.1,32.9c7.1,0,12.9-0.6,17.6-1.8l1.1,30c-7.8,2.9-18,4.4-30.7,4.4
			c-15.6,0-27.8-4.8-36.6-14.3c-8.8-9.5-13.2-25.5-13.2-47.9v-89.6h-25.9v-29.6h25.9v-32.6l38.8-11.7v44.3h43.6L1718.9,420.6
			L1718.9,420.6z M1915,478.4c0,27.3-7.8,49.8-23.4,67.3c-16.3,18.1-38,27.1-65.1,27.1c-26.1,0-46.9-8.7-62.4-25.9
			c-15.5-17.3-23.2-39.2-23.2-65.5c0-27.6,8-50.1,24-67.7c16-17.6,37.5-26.3,64.6-26.3c26.1,0,47.1,8.7,62.9,26
			C1907.4,430.1,1915,451.7,1915,478.4L1915,478.4z M1874,479.3c0-16.3-3.5-30.3-10.6-41.9c-8.3-14.1-20.1-21.2-35.5-21.2
			c-15.8,0-28,7.1-36.2,21.2c-7.1,11.7-10.6,25.9-10.6,42.7c0,16.3,3.5,30.3,10.6,42c8.5,14.1,20.5,21.2,35.9,21.2
			c15.1,0,26.9-7.2,35.5-21.5C1870.4,509.6,1874,495.6,1874,479.3L1874,479.3z M2043.5,425.7c-4.1-0.7-8.3-1.1-12.5-1.1
			c-13.9,0-24.6,5.2-32.2,15.7c-6.6,9.3-9.9,21-9.9,35.1v93.3h-39.5V446.9c0-18.7-0.3-37.3-1.1-56h34.4l1.4,34h1.1
			c4.2-11.7,10.7-21.1,19.8-28.2c8.2-6.2,18.3-9.5,28.6-9.5c3.7,0,6.9,0.3,9.9,0.7L2043.5,425.7L2043.5,425.7z M2220.2,471.4
			c0.1,6-0.4,12-1.4,17.9h-118.5c0.4,17.6,6.2,31,17.2,40.3c10,8.3,22.9,12.4,38.8,12.4c17.6,0,33.6-2.8,48-8.4l6.2,27.4
			c-16.8,7.3-36.7,11-59.6,11c-27.6,0-49.2-8.1-65-24.3c-15.7-16.2-23.6-38-23.6-65.3c0-26.8,7.3-49.1,22-66.9
			c15.3-19,36.1-28.5,62.2-28.5c25.6,0,45,9.5,58.2,28.5C2214.9,430.6,2220.2,449.2,2220.2,471.4L2220.2,471.4z M2182.5,461.2
			c0.3-11.7-2.3-21.8-7.7-30.4c-6.8-11-17.4-16.5-31.5-16.5c-12.9,0-23.4,5.4-31.5,16.1c-6.6,8.5-10.5,18.8-11.7,30.7L2182.5,461.2
			L2182.5,461.2z"/>
	</g>
	<g class="st11">
		<path class="st2" d="M794.1,235c-11,0-20.5-0.5-28.4-1.4V114.3c11.1-1.7,22.3-2.6,33.5-2.5c45.3,0,66.2,22.3,66.2,58.6
			C865.3,212.3,840.7,235,794.1,235z M800.7,127.1c-6.1,0-11.3,0.4-15.6,1.3V219c2.3,0.4,6.8,0.5,13.1,0.5
			c29.7,0,46.6-16.9,46.6-48.5C844.8,142.7,829.5,127.1,800.7,127.1z M930.4,235.9c-25.5,0-42.1-19.1-42.1-45
			c0-27,16.9-46.2,43.5-46.2c25.2,0,42.1,18.2,42.1,44.8C973.9,216.8,956.5,235.9,930.4,235.9L930.4,235.9z M931.1,158.9
			c-14,0-23,13.1-23,31.5c0,18,9.2,31.1,22.8,31.1c13.7,0,22.8-14,22.8-31.5C953.8,172.2,944.8,158.9,931.1,158.9L931.1,158.9z
			 M1119.5,146.5l-27.3,87.4h-17.8l-11.3-37.9c-2.8-9.3-5.2-18.7-7-28.2h-0.4c-1.4,9.5-4.1,19.1-7,28.2l-12,37.9h-18l-25.7-87.4h20
			l9.9,41.5c2.3,9.9,4.3,19.2,5.9,28.1h0.4c1.4-7.4,3.8-16.5,7.2-27.9l12.4-41.7h15.8l11.9,40.8c2.9,9.9,5.2,19.6,7,28.8h0.5
			c1.3-9,3.2-18.5,5.9-28.8l10.6-40.8L1119.5,146.5L1119.5,146.5z M1220.2,233.9h-19.4v-50.2c0-15.5-5.9-23.2-17.6-23.2
			c-11.5,0-19.4,9.9-19.4,21.4v52h-19.4v-62.4c0-7.7-0.2-16-0.7-25h17.1l0.9,13.5h0.5c5.2-9.3,15.8-15.3,27.7-15.3
			c18.3,0,30.4,14,30.4,36.9L1220.2,233.9L1220.2,233.9z M1273.7,233.9h-19.4V106.4h19.4V233.9z M1344.6,235.9
			c-25.5,0-42.1-19.1-42.1-45c0-27,16.9-46.2,43.5-46.2c25.2,0,42.1,18.2,42.1,44.8C1388.1,216.8,1370.6,235.9,1344.6,235.9
			L1344.6,235.9z M1345.3,158.9c-14,0-23,13.1-23,31.5c0,18,9.2,31.1,22.8,31.1c13.7,0,22.8-14,22.8-31.5
			C1367.9,172.2,1359,158.9,1345.3,158.9L1345.3,158.9z M1464.7,233.9l-1.4-10.1h-0.5c-5.9,8.1-14.6,12-25.6,12
			c-15.7,0-26.8-11-26.8-25.7c0-21.6,18.7-32.7,51.1-32.7v-1.6c0-11.5-6.1-17.3-18.1-17.3c-8.6,0-16.2,2.2-22.8,6.5l-3.9-12.8
			c8.1-5,18.2-7.6,30-7.6c22.8,0,34.4,12,34.4,36.1V213c0,8.8,0.4,15.7,1.3,20.9L1464.7,233.9L1464.7,233.9z M1462,190.4
			c-21.6,0-32.4,5.2-32.4,17.6c0,9.2,5.6,13.7,13.3,13.7c9.9,0,19.1-7.5,19.1-17.8V190.4z M1575.2,233.9l-0.9-14h-0.5
			c-5.6,10.6-15,16-28.1,16c-21.1,0-36.7-18.5-36.7-44.6c0-27.3,16.2-46.6,38.3-46.6c11.7,0,20,3.9,24.6,11.9h0.4v-50.2h19.4v103.9
			c0,8.4,0.2,16.4,0.7,23.5L1575.2,233.9L1575.2,233.9z M1572.4,182.5c0-12.2-8.1-22.7-20.5-22.7c-14.4,0-23.2,12.8-23.2,30.7
			c0,17.6,9.1,29.7,22.8,29.7c12.2,0,20.9-10.6,20.9-23.2L1572.4,182.5L1572.4,182.5z M1715.1,235.9c-25.5,0-42.1-19.1-42.1-45
			c0-27,16.9-46.2,43.5-46.2c25.2,0,42.1,18.2,42.1,44.8C1758.6,216.8,1741.2,235.9,1715.1,235.9L1715.1,235.9z M1715.8,158.9
			c-14,0-23,13.1-23,31.5c0,18,9.2,31.1,22.8,31.1c13.7,0,22.8-14,22.8-31.5C1738.5,172.2,1729.5,158.9,1715.8,158.9L1715.8,158.9z
			 M1863,233.9h-19.4v-50.2c0-15.5-5.9-23.2-17.6-23.2c-11.5,0-19.4,9.9-19.4,21.4v52h-19.4v-62.4c0-7.7-0.2-16-0.7-25h17.1
			l0.9,13.5h0.5c5.2-9.3,15.8-15.3,27.7-15.3c18.3,0,30.4,14,30.4,36.9V233.9z M1993.7,161.1h-21.4v42.4c0,10.8,3.7,16.2,11.3,16.2
			c3.4,0,6.3-0.4,8.6-0.9l0.5,14.7c-3.8,1.4-8.8,2.2-15.1,2.2c-15.3,0-24.5-8.4-24.5-30.6v-44.1h-12.8v-14.6h12.8v-16l19.1-5.8v21.8
			h21.4L1993.7,161.1L1993.7,161.1z M2096.6,233.9h-19.4v-49.8c0-15.6-5.9-23.5-17.6-23.5c-10.1,0-19.4,6.8-19.4,20.7v52.7h-19.4
			V106.4h19.4v52.5h0.4c6.1-9.5,15-14.2,26.3-14.2c18.5,0,29.8,14.4,29.8,37.2V233.9L2096.6,233.9z M2201.9,194.9h-58.3
			c0.4,16.5,11.3,25.9,27.5,25.9c8.6,0,16.6-1.4,23.6-4.1l3,13.5c-8.3,3.6-18,5.4-29.3,5.4c-27.3,0-43.5-17.3-43.5-44
			c0-26.8,16.6-46.9,41.3-46.9c22.3,0,36.3,16.5,36.3,41.5C2202.7,189,2202.5,192,2201.9,194.9L2201.9,194.9z M2184.1,181
			c0-13.5-6.8-23-19.2-23c-11.2,0-20,9.7-21.2,23H2184.1L2184.1,181z"/>
	</g>
</g>
</svg>
